<svg xmlns="http://www.w3.org/2000/svg" viewBox="0 0 100 100" width="100" height="100">
  <rect width="100" height="100" rx="22" fill="#F97316"/>
  <path d="M50 22
    C44 22 39 26 38 32
    C35 31 31 32 29 35
    C27 38 28 42 31 44
    L31 62
    C31 64 33 66 35 66
    L65 66
    C67 66 69 64 69 62
    L69 44
    C72 42 73 38 71 35
    C69 32 65 31 62 32
    C61 26 56 22 50 22Z"
    fill="none" stroke="white" stroke-width="4.5" stroke-linejoin="round" stroke-linecap="round"/>
  <rect x="36" y="68" width="28" height="7" rx="3" fill="white"/>
</svg>
